M48
; DRILL file {KiCad 7.0.7} date Mon Dec 16 13:22:06 2024
; FORMAT={-:-/ absolute / metric / decimal}
; #@! TF.CreationDate,2024-12-16T13:22:06+01:00
; #@! TF.GenerationSoftware,Kicad,Pcbnew,7.0.7
; #@! TF.FileFunction,Plated,1,4,PTH
FMAT,2
METRIC
; #@! TA.AperFunction,Plated,PTH,ViaDrill
T1C0.400
; #@! TA.AperFunction,Plated,PTH,ComponentDrill
T2C0.500
; #@! TA.AperFunction,Plated,PTH,ComponentDrill
T3C0.900
; #@! TA.AperFunction,Plated,PTH,ComponentDrill
T4C1.000
; #@! TA.AperFunction,Plated,PTH,ComponentDrill
T5C1.900
; #@! TA.AperFunction,Plated,PTH,ComponentDrill
T6C3.200
%
G90
G05
T1
X53.145Y-78.733
X53.145Y-82.733
X53.145Y-86.733
X53.145Y-90.733
X53.145Y-94.733
X53.145Y-98.733
X53.145Y-102.733
X53.145Y-106.733
X53.145Y-110.733
X53.145Y-114.733
X53.145Y-118.733
X55.305Y-67.813
X55.305Y-72.893
X55.305Y-128.773
X57.145Y-78.733
X57.145Y-82.733
X57.145Y-86.733
X57.145Y-114.733
X57.404Y-130.327
X60.385Y-72.893
X60.385Y-123.693
X61.145Y-118.733
X65.145Y-114.733
X65.465Y-72.893
X65.465Y-77.973
X65.465Y-83.053
X65.465Y-103.373
X65.465Y-123.693
X69.145Y-114.733
X70.545Y-67.813
X70.545Y-72.893
X70.545Y-77.973
X70.545Y-83.053
X70.545Y-103.373
X70.545Y-118.613
X70.545Y-123.693
X70.545Y-128.773
X75.625Y-67.813
X75.625Y-72.893
X75.625Y-77.973
X75.625Y-83.053
X75.625Y-113.533
X75.625Y-118.613
X75.625Y-128.773
X80.705Y-67.813
X80.705Y-72.893
X80.705Y-77.973
X80.705Y-83.053
X80.705Y-98.293
X80.705Y-103.373
X80.705Y-113.533
X80.705Y-118.613
X80.705Y-128.773
X85.785Y-67.813
X85.785Y-72.893
X85.785Y-77.973
X85.785Y-83.053
X85.785Y-98.293
X85.785Y-103.373
X85.785Y-113.533
X85.785Y-128.773
X90.865Y-67.813
X90.865Y-72.893
X90.865Y-77.973
X90.865Y-83.053
X90.865Y-98.293
X90.865Y-103.373
X90.865Y-113.533
X90.865Y-118.613
X90.865Y-128.773
X95.945Y-67.813
X95.945Y-72.893
X95.945Y-77.973
X95.945Y-83.053
X95.945Y-98.293
X95.945Y-113.533
X95.945Y-118.613
X95.945Y-128.773
X96.041Y-103.627
X96.041Y-104.677
X97.078Y-103.226
X97.078Y-105.208
X101.025Y-67.813
X101.025Y-72.893
X101.025Y-77.973
X101.025Y-83.053
X101.025Y-118.613
X101.025Y-123.693
X101.025Y-128.773
X101.619Y-101.268
X102.368Y-100.606
X103.322Y-100.593
X104.119Y-101.268
X106.105Y-72.893
X106.105Y-77.973
X106.105Y-118.613
X106.105Y-123.693
X108.255Y-113.894
X111.185Y-72.893
X111.185Y-123.693
X111.302Y-113.902
X111.552Y-100.02
X113.045Y-103.709
X113.35Y-99.086
X114.315Y-103.251
X116.195Y-93.955
X116.245Y-99.086
X116.265Y-67.813
X116.265Y-77.973
X116.265Y-83.053
X116.265Y-108.453
X116.265Y-113.533
X116.265Y-128.773
X117.617Y-95.311
X118.836Y-90.043
X118.926Y-85.026
X120.563Y-90.856
X121.345Y-72.893
X121.345Y-77.973
X121.345Y-83.053
X121.345Y-108.453
X121.345Y-113.533
X121.345Y-118.613
X122.834Y-95.302
X124.408Y-82.0
X126.425Y-108.453
X126.425Y-113.533
X126.425Y-118.613
X126.425Y-123.693
X128.869Y-93.768
X128.869Y-103.768
X129.177Y-104.719
X129.227Y-92.835
X131.471Y-118.925
X131.505Y-83.053
X131.505Y-108.453
X131.505Y-113.533
X132.416Y-119.252
X132.491Y-78.631
X133.463Y-78.4
X133.531Y-119.253
X133.619Y-93.768
X133.619Y-103.768
X134.336Y-104.464
X134.371Y-93.109
X134.475Y-118.925
X134.517Y-78.409
X135.491Y-78.631
X136.585Y-72.893
X136.585Y-88.133
X136.585Y-93.213
X136.585Y-103.373
X136.585Y-108.453
X136.585Y-118.613
X140.828Y-98.243
X140.828Y-99.293
X140.863Y-97.189
X140.863Y-100.339
X141.665Y-72.893
X141.665Y-83.053
X141.665Y-93.213
X141.665Y-103.373
X141.665Y-108.453
X141.665Y-113.533
X141.665Y-118.613
X141.665Y-123.693
X144.471Y-118.925
X145.417Y-119.249
X145.541Y-78.631
X146.198Y-101.703
X146.471Y-97.282
X146.471Y-100.282
X146.481Y-96.025
X146.526Y-119.249
X146.588Y-78.6
X146.745Y-88.133
X147.471Y-118.925
X147.542Y-78.6
X148.541Y-78.631
X151.825Y-72.893
X151.825Y-77.973
X151.825Y-83.053
X151.825Y-118.613
X151.825Y-123.693
X156.905Y-93.213
X157.471Y-118.925
X158.416Y-119.252
X158.491Y-78.631
X159.436Y-78.304
X159.477Y-97.269
X159.477Y-100.269
X159.527Y-119.252
X159.691Y-101.245
X159.776Y-96.252
X160.471Y-118.925
X160.546Y-78.308
X161.491Y-78.631
X161.985Y-72.893
X161.985Y-88.133
X161.985Y-93.213
X161.985Y-103.373
X164.486Y-97.485
X164.541Y-100.122
X165.12Y-98.258
X165.12Y-99.308
X167.065Y-72.893
X167.065Y-88.133
X167.065Y-93.213
X167.065Y-103.373
X167.065Y-108.453
X167.065Y-118.613
X167.065Y-123.693
X170.471Y-118.925
X171.425Y-119.225
X171.487Y-78.631
X171.708Y-92.999
X171.755Y-104.601
X172.145Y-83.053
X172.145Y-88.133
X172.145Y-108.453
X172.145Y-113.533
X172.329Y-93.783
X172.329Y-103.783
X172.451Y-78.368
X172.532Y-119.281
X173.471Y-118.925
X173.533Y-78.347
X174.491Y-78.631
X176.703Y-104.715
X176.859Y-92.808
X177.079Y-93.783
X177.079Y-103.783
X177.225Y-72.893
X177.225Y-77.973
X177.225Y-83.053
X177.225Y-88.133
X177.225Y-118.613
X177.225Y-123.693
X181.54Y-116.693
X182.305Y-67.813
X182.305Y-77.973
X182.305Y-83.053
X182.305Y-88.133
X183.115Y-102.254
X185.385Y-106.694
X187.022Y-112.525
X187.112Y-107.507
X187.385Y-67.813
X187.385Y-83.053
X187.385Y-88.133
X187.385Y-123.693
X188.331Y-102.239
X189.703Y-98.465
X189.754Y-103.596
X191.633Y-94.299
X192.465Y-77.973
X192.598Y-98.465
X193.072Y-94.075
X194.392Y-83.723
X194.396Y-97.531
X197.545Y-77.973
X197.545Y-108.453
X197.545Y-113.533
X197.545Y-123.693
X201.829Y-96.283
X202.574Y-96.949
X202.625Y-77.973
X202.625Y-88.133
X202.625Y-108.453
X202.625Y-113.533
X202.625Y-123.693
X202.625Y-128.773
X203.561Y-96.923
X204.329Y-96.283
X207.705Y-67.813
X207.705Y-77.973
X207.705Y-88.133
X207.705Y-98.293
X207.705Y-103.373
X207.705Y-108.453
X207.705Y-113.533
X207.705Y-123.693
X207.705Y-128.773
X209.855Y-91.876
X209.872Y-94.923
X209.907Y-92.874
X209.907Y-93.924
X212.785Y-67.813
X212.785Y-72.893
X212.785Y-123.693
X212.785Y-128.773
X217.865Y-67.813
X217.865Y-72.893
X217.865Y-77.973
X217.865Y-83.053
X217.865Y-98.293
X217.865Y-103.373
X217.865Y-118.613
X217.865Y-123.693
X217.865Y-128.773
X222.945Y-67.813
X222.945Y-72.893
X222.945Y-77.973
X222.945Y-83.053
X222.945Y-88.133
X222.945Y-98.293
X222.945Y-103.373
X222.945Y-113.533
X222.945Y-118.613
X222.945Y-128.773
X225.145Y-110.733
X225.145Y-114.733
X226.924Y-130.302
X228.025Y-72.893
X228.025Y-123.693
X229.145Y-118.733
X233.105Y-72.893
X233.105Y-93.213
X233.105Y-98.293
X233.105Y-123.693
X233.145Y-78.733
X233.145Y-82.733
X233.145Y-110.733
X233.145Y-114.733
X233.145Y-118.733
X237.145Y-78.733
X237.145Y-82.733
X237.145Y-86.733
X237.145Y-90.733
X237.145Y-94.733
X237.145Y-98.733
X237.145Y-102.733
X237.145Y-106.733
X237.145Y-110.733
X237.145Y-114.733
X237.145Y-118.733
X238.185Y-72.893
X238.185Y-123.693
T2
X83.261Y-99.414
X83.261Y-102.464
T3
X228.503Y-87.41
X228.503Y-90.15
X228.503Y-92.89
X228.503Y-95.63
X228.503Y-98.37
X228.503Y-101.11
X228.503Y-103.85
X228.503Y-106.59
X231.343Y-88.78
X231.343Y-91.52
X231.343Y-94.26
X231.343Y-97.0
X231.343Y-99.74
X231.343Y-102.48
X231.343Y-105.22
T4
X59.4Y-88.78
X59.4Y-91.52
X59.4Y-94.26
X59.4Y-97.0
X59.4Y-99.74
X59.4Y-102.48
X59.4Y-105.22
X62.24Y-87.41
X62.24Y-90.15
X62.24Y-92.89
X62.24Y-95.63
X62.24Y-98.37
X62.24Y-101.11
X62.24Y-103.85
X62.24Y-106.59
T5
X73.72Y-123.783
X73.72Y-130.793
X78.72Y-123.783
X78.72Y-130.793
X88.72Y-123.783
X88.72Y-130.793
X93.72Y-123.783
X93.72Y-130.793
T6
X60.82Y-80.34
X60.82Y-113.66
X65.735Y-66.827
X65.735Y-130.327
X111.303Y-66.827
X111.303Y-130.327
X194.64Y-66.827
X194.64Y-130.327
X229.923Y-80.34
X229.923Y-113.66
X235.28Y-66.827
X235.28Y-130.327
T0
M30
