M48
; DRILL file {KiCad 7.0.7} date Fri Dec 13 14:45:44 2024
; FORMAT={-:-/ absolute / inch / decimal}
; #@! TF.CreationDate,2024-12-13T14:45:44+01:00
; #@! TF.GenerationSoftware,Kicad,Pcbnew,7.0.7
; #@! TF.FileFunction,Plated,1,4,PTH
FMAT,2
INCH
; #@! TA.AperFunction,Plated,PTH,ViaDrill
T1C0.0157
; #@! TA.AperFunction,Plated,PTH,ComponentDrill
T2C0.0354
; #@! TA.AperFunction,Plated,PTH,ComponentDrill
T3C0.0394
; #@! TA.AperFunction,Plated,PTH,ComponentDrill
T4C0.0748
; #@! TA.AperFunction,Plated,PTH,ComponentDrill
T5C0.1260
%
G90
G05
T1
X2.0923Y-3.0997
X2.0923Y-3.2572
X2.0923Y-3.4147
X2.0923Y-3.5722
X2.0923Y-3.7296
X2.0923Y-3.8871
X2.0923Y-4.0446
X2.0923Y-4.2021
X2.0923Y-4.3596
X2.0923Y-4.517
X2.0923Y-4.6745
X2.1774Y-2.6698
X2.1774Y-2.8698
X2.1774Y-5.0698
X2.2498Y-3.0997
X2.2498Y-3.2572
X2.2498Y-3.4147
X2.2498Y-4.517
X2.26Y-5.131
X2.3774Y-2.8698
X2.3774Y-4.8698
X2.4073Y-4.6745
X2.5648Y-4.517
X2.5774Y-2.8698
X2.5774Y-3.0698
X2.5774Y-3.2698
X2.5774Y-4.0698
X2.5774Y-4.8698
X2.7223Y-4.517
X2.7774Y-2.6698
X2.7774Y-2.8698
X2.7774Y-3.0698
X2.7774Y-3.2698
X2.7774Y-4.0698
X2.7774Y-4.6698
X2.7774Y-4.8698
X2.7774Y-5.0698
X2.9774Y-2.6698
X2.9774Y-2.8698
X2.9774Y-3.0698
X2.9774Y-3.2698
X2.9774Y-4.4698
X2.9774Y-4.6698
X2.9774Y-5.0698
X3.1774Y-2.6698
X3.1774Y-2.8698
X3.1774Y-3.0698
X3.1774Y-3.2698
X3.1774Y-3.8698
X3.1774Y-4.0698
X3.1774Y-4.4698
X3.1774Y-4.6698
X3.1774Y-5.0698
X3.3774Y-2.6698
X3.3774Y-2.8698
X3.3774Y-3.0698
X3.3774Y-3.2698
X3.3774Y-3.8698
X3.3774Y-4.0698
X3.3774Y-4.4698
X3.3774Y-5.0698
X3.5774Y-2.6698
X3.5774Y-2.8698
X3.5774Y-3.0698
X3.5774Y-3.2698
X3.5774Y-3.8698
X3.5774Y-4.0698
X3.5774Y-4.4698
X3.5774Y-4.6698
X3.5774Y-5.0698
X3.7774Y-2.6698
X3.7774Y-2.8698
X3.7774Y-3.0698
X3.7774Y-3.2698
X3.7774Y-3.8698
X3.7774Y-4.4698
X3.7774Y-4.6698
X3.7774Y-5.0698
X3.7812Y-4.0798
X3.7812Y-4.1211
X3.822Y-4.064
X3.822Y-4.142
X3.9774Y-2.6698
X3.9774Y-2.8698
X3.9774Y-3.0698
X3.9774Y-3.2698
X3.9774Y-4.6698
X3.9774Y-4.8698
X3.9774Y-5.0698
X4.0008Y-3.9869
X4.0302Y-3.9609
X4.0678Y-3.9603
X4.0992Y-3.9869
X4.1774Y-2.8698
X4.1774Y-3.0698
X4.1774Y-4.6698
X4.1774Y-4.8698
X4.262Y-4.484
X4.3774Y-2.8698
X4.3774Y-4.8698
X4.382Y-4.4843
X4.3918Y-3.9378
X4.4506Y-4.083
X4.4626Y-3.901
X4.5006Y-4.065
X4.5746Y-3.699
X4.5766Y-3.901
X4.5774Y-2.6698
X4.5774Y-3.0698
X4.5774Y-3.2698
X4.5774Y-4.2698
X4.5774Y-4.4698
X4.5774Y-5.0698
X4.6306Y-3.7524
X4.6786Y-3.545
X4.6821Y-3.3475
X4.7466Y-3.577
X4.7774Y-2.8698
X4.7774Y-3.0698
X4.7774Y-3.2698
X4.7774Y-4.2698
X4.7774Y-4.4698
X4.7774Y-4.6698
X4.836Y-3.752
X4.898Y-3.2283
X4.9774Y-4.2698
X4.9774Y-4.4698
X4.9774Y-4.6698
X4.9774Y-4.8698
X5.0736Y-3.6917
X5.0736Y-4.0854
X5.0857Y-4.1228
X5.0877Y-3.6549
X5.176Y-4.6821
X5.1774Y-3.2698
X5.1774Y-4.2698
X5.1774Y-4.4698
X5.2132Y-4.695
X5.2162Y-3.0957
X5.2545Y-3.0866
X5.2571Y-4.695
X5.2606Y-3.6917
X5.2606Y-4.0854
X5.2888Y-4.1128
X5.2902Y-3.6657
X5.2943Y-4.6821
X5.2959Y-3.087
X5.3343Y-3.0957
X5.3774Y-2.8698
X5.3774Y-3.4698
X5.3774Y-3.6698
X5.3774Y-4.0698
X5.3774Y-4.2698
X5.3774Y-4.6698
X5.5444Y-3.8678
X5.5444Y-3.9092
X5.5458Y-3.8263
X5.5458Y-3.9503
X5.5774Y-2.8698
X5.5774Y-3.2698
X5.5774Y-3.6698
X5.5774Y-4.0698
X5.5774Y-4.2698
X5.5774Y-4.4698
X5.5774Y-4.6698
X5.5774Y-4.8698
X5.6879Y-4.6821
X5.7251Y-4.6948
X5.73Y-3.0957
X5.7558Y-4.004
X5.7666Y-3.83
X5.7666Y-3.9481
X5.767Y-3.7805
X5.7687Y-4.6948
X5.7712Y-3.0945
X5.7774Y-3.4698
X5.806Y-4.6821
X5.8087Y-3.0945
X5.8481Y-3.0957
X5.9774Y-2.8698
X5.9774Y-3.0698
X5.9774Y-3.2698
X5.9774Y-4.6698
X5.9774Y-4.8698
X6.1774Y-3.6698
X6.1997Y-4.6821
X6.2368Y-4.695
X6.2398Y-3.0957
X6.277Y-3.0828
X6.2786Y-3.8295
X6.2786Y-3.9476
X6.2806Y-4.695
X6.2871Y-3.986
X6.2904Y-3.7894
X6.3178Y-4.6821
X6.3207Y-3.083
X6.3579Y-3.0957
X6.3774Y-2.8698
X6.3774Y-3.4698
X6.3774Y-3.6698
X6.3774Y-4.0698
X6.4758Y-3.838
X6.478Y-3.9418
X6.5008Y-3.8684
X6.5008Y-3.9097
X6.5774Y-2.8698
X6.5774Y-3.4698
X6.5774Y-3.6698
X6.5774Y-4.0698
X6.5774Y-4.2698
X6.5774Y-4.6698
X6.5774Y-4.8698
X6.7115Y-4.6821
X6.749Y-4.6939
X6.7515Y-3.0957
X6.7602Y-3.6614
X6.762Y-4.1182
X6.7774Y-3.2698
X6.7774Y-3.4698
X6.7774Y-4.2698
X6.7774Y-4.4698
X6.7846Y-3.6922
X6.7846Y-4.0859
X6.7894Y-3.0853
X6.7926Y-4.6961
X6.8296Y-4.6821
X6.832Y-3.0845
X6.8697Y-3.0957
X6.9568Y-4.1226
X6.963Y-3.6538
X6.9716Y-3.6922
X6.9716Y-4.0859
X6.9774Y-2.8698
X6.9774Y-3.0698
X6.9774Y-3.2698
X6.9774Y-3.4698
X6.9774Y-4.6698
X6.9774Y-4.8698
X7.1472Y-4.5942
X7.1774Y-2.6698
X7.1774Y-3.0698
X7.1774Y-3.2698
X7.1774Y-3.4698
X7.2092Y-4.0257
X7.2986Y-4.2006
X7.3631Y-4.4301
X7.3666Y-4.2326
X7.3774Y-2.6698
X7.3774Y-3.2698
X7.3774Y-3.4698
X7.3774Y-4.8698
X7.4146Y-4.0252
X7.4686Y-3.8766
X7.4706Y-4.0786
X7.5446Y-3.7126
X7.5774Y-3.0698
X7.5826Y-3.8766
X7.6012Y-3.7037
X7.6532Y-3.2962
X7.6534Y-3.8398
X7.7774Y-3.0698
X7.7774Y-4.2698
X7.7774Y-4.4698
X7.7774Y-4.8698
X7.946Y-3.7907
X7.9754Y-3.8169
X7.9774Y-3.0698
X7.9774Y-3.4698
X7.9774Y-4.2698
X7.9774Y-4.4698
X7.9774Y-4.8698
X7.9774Y-5.0698
X8.0142Y-3.8159
X8.0445Y-3.7907
X8.1774Y-2.6698
X8.1774Y-3.0698
X8.1774Y-3.4698
X8.1774Y-3.8698
X8.1774Y-4.0698
X8.1774Y-4.2698
X8.1774Y-4.4698
X8.1774Y-4.8698
X8.1774Y-5.0698
X8.262Y-3.6172
X8.2627Y-3.7371
X8.2641Y-3.6564
X8.2641Y-3.6978
X8.3774Y-2.6698
X8.3774Y-2.8698
X8.3774Y-4.8698
X8.3774Y-5.0698
X8.5774Y-2.6698
X8.5774Y-2.8698
X8.5774Y-3.0698
X8.5774Y-3.2698
X8.5774Y-3.8698
X8.5774Y-4.0698
X8.5774Y-4.6698
X8.5774Y-4.8698
X8.5774Y-5.0698
X8.7774Y-2.6698
X8.7774Y-2.8698
X8.7774Y-3.0698
X8.7774Y-3.2698
X8.7774Y-3.4698
X8.7774Y-3.8698
X8.7774Y-4.0698
X8.7774Y-4.4698
X8.7774Y-4.6698
X8.7774Y-5.0698
X8.864Y-4.3596
X8.864Y-4.517
X8.934Y-5.13
X8.9774Y-2.8698
X8.9774Y-4.8698
X9.0215Y-4.6745
X9.1774Y-2.8698
X9.1774Y-3.6698
X9.1774Y-3.8698
X9.1774Y-4.8698
X9.179Y-3.0997
X9.179Y-3.2572
X9.179Y-4.3596
X9.179Y-4.517
X9.179Y-4.6745
X9.3364Y-3.0997
X9.3364Y-3.2572
X9.3364Y-3.4147
X9.3364Y-3.5722
X9.3364Y-3.7296
X9.3364Y-3.8871
X9.3364Y-4.0446
X9.3364Y-4.2021
X9.3364Y-4.3596
X9.3364Y-4.517
X9.3364Y-4.6745
X9.3774Y-2.8698
X9.3774Y-4.8698
T2
X8.9962Y-3.4413
X8.9962Y-3.5492
X8.9962Y-3.6571
X8.9962Y-3.765
X8.9962Y-3.8728
X8.9962Y-3.9807
X8.9962Y-4.0886
X8.9962Y-4.1965
X9.108Y-3.4953
X9.108Y-3.6031
X9.108Y-3.711
X9.108Y-3.8189
X9.108Y-3.9268
X9.108Y-4.0346
X9.108Y-4.1425
T3
X2.3386Y-3.4953
X2.3386Y-3.6031
X2.3386Y-3.711
X2.3386Y-3.8189
X2.3386Y-3.9268
X2.3386Y-4.0346
X2.3386Y-4.1425
X2.4504Y-3.4413
X2.4504Y-3.5492
X2.4504Y-3.6571
X2.4504Y-3.765
X2.4504Y-3.8728
X2.4504Y-3.9807
X2.4504Y-4.0886
X2.4504Y-4.1965
T4
X2.9024Y-4.8734
X2.9024Y-5.1493
X3.0992Y-4.8734
X3.0992Y-5.1493
X3.4929Y-4.8734
X3.4929Y-5.1493
X3.6898Y-4.8734
X3.6898Y-5.1493
T5
X2.3945Y-3.163
X2.3945Y-4.4748
X2.588Y-2.631
X2.588Y-5.131
X4.382Y-2.631
X4.382Y-5.131
X7.663Y-2.631
X7.663Y-5.131
X9.0521Y-3.163
X9.0521Y-4.4748
X9.263Y-2.631
X9.263Y-5.131
T0
M30
