%TF.GenerationSoftware,KiCad,Pcbnew,7.0.7*%
%TF.CreationDate,2024-12-16T13:21:34+01:00*%
%TF.ProjectId,dmem_2V0,646d656d-5f32-4563-902e-6b696361645f,rev?*%
%TF.SameCoordinates,Original*%
%TF.FileFunction,Soldermask,Top*%
%TF.FilePolarity,Negative*%
%FSLAX46Y46*%
G04 Gerber Fmt 4.6, Leading zero omitted, Abs format (unit mm)*
G04 Created by KiCad (PCBNEW 7.0.7) date 2024-12-16 13:21:34*
%MOMM*%
%LPD*%
G01*
G04 APERTURE LIST*
G04 Aperture macros list*
%AMRoundRect*
0 Rectangle with rounded corners*
0 $1 Rounding radius*
0 $2 $3 $4 $5 $6 $7 $8 $9 X,Y pos of 4 corners*
0 Add a 4 corners polygon primitive as box body*
4,1,4,$2,$3,$4,$5,$6,$7,$8,$9,$2,$3,0*
0 Add four circle primitives for the rounded corners*
1,1,$1+$1,$2,$3*
1,1,$1+$1,$4,$5*
1,1,$1+$1,$6,$7*
1,1,$1+$1,$8,$9*
0 Add four rect primitives between the rounded corners*
20,1,$1+$1,$2,$3,$4,$5,0*
20,1,$1+$1,$4,$5,$6,$7,0*
20,1,$1+$1,$6,$7,$8,$9,0*
20,1,$1+$1,$8,$9,$2,$3,0*%
G04 Aperture macros list end*
%ADD10R,0.584200X0.508000*%
%ADD11R,0.584200X0.812800*%
%ADD12R,0.558000X1.654899*%
%ADD13RoundRect,0.250000X0.450000X-0.262500X0.450000X0.262500X-0.450000X0.262500X-0.450000X-0.262500X0*%
%ADD14RoundRect,0.250000X-0.325000X-0.650000X0.325000X-0.650000X0.325000X0.650000X-0.325000X0.650000X0*%
%ADD15RoundRect,0.250000X0.262500X0.450000X-0.262500X0.450000X-0.262500X-0.450000X0.262500X-0.450000X0*%
%ADD16RoundRect,0.250000X-0.262500X-0.450000X0.262500X-0.450000X0.262500X0.450000X-0.262500X0.450000X0*%
%ADD17RoundRect,0.250000X-0.475000X0.250000X-0.475000X-0.250000X0.475000X-0.250000X0.475000X0.250000X0*%
%ADD18RoundRect,0.250000X-0.450000X0.262500X-0.450000X-0.262500X0.450000X-0.262500X0.450000X0.262500X0*%
%ADD19RoundRect,0.225000X-0.225000X-0.250000X0.225000X-0.250000X0.225000X0.250000X-0.225000X0.250000X0*%
%ADD20R,1.000000X1.000000*%
%ADD21C,3.054000*%
%ADD22RoundRect,0.225000X0.225000X0.250000X-0.225000X0.250000X-0.225000X-0.250000X0.225000X-0.250000X0*%
%ADD23C,5.800000*%
%ADD24RoundRect,0.250000X0.325000X0.650000X-0.325000X0.650000X-0.325000X-0.650000X0.325000X-0.650000X0*%
%ADD25RoundRect,0.250000X0.475000X-0.250000X0.475000X0.250000X-0.475000X0.250000X-0.475000X-0.250000X0*%
%ADD26RoundRect,0.250000X-0.650000X0.325000X-0.650000X-0.325000X0.650000X-0.325000X0.650000X0.325000X0*%
%ADD27RoundRect,0.225000X-0.250000X0.225000X-0.250000X-0.225000X0.250000X-0.225000X0.250000X0.225000X0*%
%ADD28RoundRect,0.250000X0.650000X-0.325000X0.650000X0.325000X-0.650000X0.325000X-0.650000X-0.325000X0*%
%ADD29RoundRect,0.250000X-0.625000X0.312500X-0.625000X-0.312500X0.625000X-0.312500X0.625000X0.312500X0*%
%ADD30RoundRect,0.250000X0.250000X0.475000X-0.250000X0.475000X-0.250000X-0.475000X0.250000X-0.475000X0*%
%ADD31RoundRect,0.150000X0.150000X-0.587500X0.150000X0.587500X-0.150000X0.587500X-0.150000X-0.587500X0*%
%ADD32R,0.600000X1.550000*%
%ADD33R,0.800000X1.800000*%
%ADD34RoundRect,0.102000X-0.754000X0.754000X-0.754000X-0.754000X0.754000X-0.754000X0.754000X0.754000X0*%
%ADD35C,1.712000*%
%ADD36C,4.200000*%
%ADD37RoundRect,0.225000X0.250000X-0.225000X0.250000X0.225000X-0.250000X0.225000X-0.250000X-0.225000X0*%
%ADD38RoundRect,0.102000X0.704000X-0.704000X0.704000X0.704000X-0.704000X0.704000X-0.704000X-0.704000X0*%
%ADD39C,1.612000*%
%ADD40C,4.420000*%
%ADD41RoundRect,0.200000X0.275000X-0.200000X0.275000X0.200000X-0.275000X0.200000X-0.275000X-0.200000X0*%
%ADD42RoundRect,0.250000X-0.250000X-0.475000X0.250000X-0.475000X0.250000X0.475000X-0.250000X0.475000X0*%
%ADD43RoundRect,0.250000X-0.312500X-0.625000X0.312500X-0.625000X0.312500X0.625000X-0.312500X0.625000X0*%
%ADD44RoundRect,0.150000X-0.150000X0.587500X-0.150000X-0.587500X0.150000X-0.587500X0.150000X0.587500X0*%
G04 APERTURE END LIST*
D10*
%TO.C,Q1*%
X180739114Y-97858183D03*
D11*
X180739109Y-99005768D03*
D10*
X182759116Y-99158181D03*
X182759116Y-97858183D03*
%TD*%
%TO.C,Q2*%
X125209102Y-99658220D03*
D11*
X125209107Y-98510635D03*
D10*
X123189100Y-98358222D03*
X123189100Y-99658220D03*
%TD*%
D12*
%TO.C,U1*%
X189288516Y-105592781D03*
X190558516Y-105592781D03*
X191828516Y-105592781D03*
X193098516Y-105592781D03*
X193098516Y-99950079D03*
X191828516Y-99950079D03*
X190558516Y-99950079D03*
X189288516Y-99950079D03*
%TD*%
%TO.C,U2*%
X116659700Y-91957808D03*
X115389700Y-91957808D03*
X114119700Y-91957808D03*
X112849700Y-91957808D03*
X112849700Y-97600510D03*
X114119700Y-97600510D03*
X115389700Y-97600510D03*
X116659700Y-97600510D03*
%TD*%
D13*
%TO.C,R36*%
X144471500Y-122063100D03*
X144471500Y-120238100D03*
%TD*%
D14*
%TO.C,C26*%
X178580116Y-113033030D03*
X181530116Y-113033030D03*
%TD*%
D15*
%TO.C,R79*%
X108455500Y-106818759D03*
X106630500Y-106818759D03*
%TD*%
D16*
%TO.C,R21*%
X195513416Y-95710230D03*
X197338416Y-95710230D03*
%TD*%
%TO.C,R61*%
X228805100Y-130327400D03*
X230630100Y-130327400D03*
%TD*%
D17*
%TO.C,C49*%
X113230700Y-100179159D03*
X113230700Y-102079159D03*
%TD*%
D16*
%TO.C,R83*%
X108863800Y-98131959D03*
X110688800Y-98131959D03*
%TD*%
D13*
%TO.C,R68*%
X121460300Y-96148859D03*
X121460300Y-94323859D03*
%TD*%
D18*
%TO.C,R48*%
X148491200Y-75493300D03*
X148491200Y-77318300D03*
%TD*%
D16*
%TO.C,R80*%
X106579700Y-109104759D03*
X108404700Y-109104759D03*
%TD*%
D19*
%TO.C,C50*%
X108899700Y-100011559D03*
X110449700Y-100011559D03*
%TD*%
D16*
%TO.C,R91*%
X228367700Y-66827400D03*
X230192700Y-66827400D03*
%TD*%
D15*
%TO.C,R69*%
X120188400Y-100214759D03*
X118363400Y-100214759D03*
%TD*%
D18*
%TO.C,R78*%
X124521500Y-86856259D03*
X124521500Y-88681259D03*
%TD*%
D16*
%TO.C,R6*%
X185759816Y-97335830D03*
X187584816Y-97335830D03*
%TD*%
D20*
%TO.C,Vce_r1*%
X83261200Y-102463600D03*
%TD*%
D16*
%TO.C,R24*%
X173916616Y-103782630D03*
X175741616Y-103782630D03*
%TD*%
D21*
%TO.C,J11*%
X93720400Y-123783400D03*
X88720400Y-123783400D03*
X88720400Y-130793400D03*
X93720400Y-130793400D03*
%TD*%
D17*
%TO.C,C4*%
X178595116Y-101313430D03*
X178595116Y-103213430D03*
%TD*%
D22*
%TO.C,C38*%
X124991500Y-101383159D03*
X123441500Y-101383159D03*
%TD*%
D23*
%TO.C,REF\u002A\u002A*%
X194640200Y-66827400D03*
%TD*%
D24*
%TO.C,C28*%
X138594100Y-97267959D03*
X135644100Y-97267959D03*
%TD*%
D18*
%TO.C,R35*%
X150471500Y-120238100D03*
X150471500Y-122063100D03*
%TD*%
D16*
%TO.C,R3*%
X183169016Y-105209830D03*
X184994016Y-105209830D03*
%TD*%
D13*
%TO.C,R77*%
X110487500Y-106969259D03*
X110487500Y-105144259D03*
%TD*%
D25*
%TO.C,C17*%
X192717516Y-97371430D03*
X192717516Y-95471430D03*
%TD*%
D16*
%TO.C,R88*%
X58822700Y-66827400D03*
X60647700Y-66827400D03*
%TD*%
D15*
%TO.C,R63*%
X100542000Y-103110359D03*
X98717000Y-103110359D03*
%TD*%
D26*
%TO.C,C42*%
X122019100Y-87055759D03*
X122019100Y-90005759D03*
%TD*%
D19*
%TO.C,C45*%
X112404900Y-85330359D03*
X113954900Y-85330359D03*
%TD*%
D15*
%TO.C,R66*%
X122779200Y-92340759D03*
X120954200Y-92340759D03*
%TD*%
D27*
%TO.C,C11*%
X186723116Y-104892030D03*
X186723116Y-106442030D03*
%TD*%
D28*
%TO.C,C12*%
X193073116Y-92460830D03*
X193073116Y-89510830D03*
%TD*%
D18*
%TO.C,R60*%
X194640200Y-123414900D03*
X194640200Y-125239900D03*
%TD*%
D13*
%TO.C,R22*%
X199219916Y-98197530D03*
X199219916Y-96372530D03*
%TD*%
D24*
%TO.C,C27*%
X127368100Y-84517559D03*
X124418100Y-84517559D03*
%TD*%
D29*
%TO.C,JP1*%
X226100400Y-120040400D03*
X226100400Y-122965400D03*
%TD*%
D26*
%TO.C,C5*%
X180931916Y-102922030D03*
X180931916Y-105872030D03*
%TD*%
D15*
%TO.C,R57*%
X145276399Y-100282000D03*
X143451399Y-100282000D03*
%TD*%
D28*
%TO.C,C10*%
X183929116Y-110494830D03*
X183929116Y-107544830D03*
%TD*%
D16*
%TO.C,R72*%
X115874200Y-85025559D03*
X117699200Y-85025559D03*
%TD*%
%TO.C,R67*%
X119379400Y-98030359D03*
X121204400Y-98030359D03*
%TD*%
D13*
%TO.C,R75*%
X119225100Y-96148859D03*
X119225100Y-94323859D03*
%TD*%
D16*
%TO.C,R56*%
X160671817Y-100268588D03*
X162496817Y-100268588D03*
%TD*%
D23*
%TO.C,REF\u002A\u002A*%
X235280200Y-66827400D03*
%TD*%
D14*
%TO.C,C15*%
X197489016Y-93119430D03*
X200439016Y-93119430D03*
%TD*%
D30*
%TO.C,C48*%
X114079100Y-89191159D03*
X112179100Y-89191159D03*
%TD*%
D31*
%TO.C,D1*%
X174546316Y-99720130D03*
X176446316Y-99720130D03*
X175496316Y-97845130D03*
%TD*%
D18*
%TO.C,R5*%
X184487916Y-101401730D03*
X184487916Y-103226730D03*
%TD*%
D23*
%TO.C,REF\u002A\u002A*%
X194640200Y-130327400D03*
%TD*%
D26*
%TO.C,C31*%
X104119100Y-96292959D03*
X104119100Y-99242959D03*
%TD*%
D15*
%TO.C,R70*%
X117658000Y-102297559D03*
X115833000Y-102297559D03*
%TD*%
D32*
%TO.C,J6*%
X145491200Y-69630800D03*
X146491200Y-69630800D03*
X147491200Y-69630800D03*
D33*
X144191200Y-67105800D03*
X148791200Y-67105800D03*
%TD*%
D15*
%TO.C,R17*%
X199368516Y-88445830D03*
X197543516Y-88445830D03*
%TD*%
%TO.C,R76*%
X114244800Y-87159159D03*
X112419800Y-87159159D03*
%TD*%
D16*
%TO.C,R29*%
X205406216Y-94440230D03*
X207231216Y-94440230D03*
%TD*%
D28*
%TO.C,C37*%
X125016300Y-94628559D03*
X125016300Y-91678559D03*
%TD*%
D34*
%TO.C,J1*%
X62240400Y-87410000D03*
D35*
X62240400Y-90150000D03*
X62240400Y-92890000D03*
X62240400Y-95630000D03*
X62240400Y-98370000D03*
X62240400Y-101110000D03*
X62240400Y-103850000D03*
X62240400Y-106590000D03*
X59400400Y-88780000D03*
X59400400Y-91520000D03*
X59400400Y-94260000D03*
X59400400Y-97000000D03*
X59400400Y-99740000D03*
X59400400Y-102480000D03*
X59400400Y-105220000D03*
D36*
X60820400Y-80340000D03*
X60820400Y-113660000D03*
%TD*%
D37*
%TO.C,C43*%
X119225100Y-92658559D03*
X119225100Y-91108559D03*
%TD*%
D32*
%TO.C,J8*%
X158491200Y-69630800D03*
X159491200Y-69630800D03*
X160491200Y-69630800D03*
D33*
X157191200Y-67105800D03*
X161791200Y-67105800D03*
%TD*%
D28*
%TO.C,C7*%
X186162716Y-95346781D03*
X186162716Y-92396781D03*
%TD*%
D16*
%TO.C,R31*%
X104903900Y-130327400D03*
X106728900Y-130327400D03*
%TD*%
D20*
%TO.C,Vce1*%
X83261200Y-99413600D03*
%TD*%
D26*
%TO.C,C39*%
X119785500Y-102208822D03*
X119785500Y-105158822D03*
%TD*%
D14*
%TO.C,C24*%
X167354116Y-97282630D03*
X170304116Y-97282630D03*
%TD*%
D13*
%TO.C,R39*%
X157471500Y-122063100D03*
X157471500Y-120238100D03*
%TD*%
%TO.C,R55*%
X171491201Y-77318300D03*
X171491201Y-75493300D03*
%TD*%
D18*
%TO.C,R41*%
X176471500Y-120238100D03*
X176471500Y-122063100D03*
%TD*%
%TO.C,R50*%
X135491200Y-75493300D03*
X135491200Y-77318300D03*
%TD*%
D13*
%TO.C,R15*%
X181426716Y-110694330D03*
X181426716Y-108869330D03*
%TD*%
D15*
%TO.C,R82*%
X110739600Y-93712359D03*
X108914600Y-93712359D03*
%TD*%
D18*
%TO.C,R12*%
X186723116Y-101401730D03*
X186723116Y-103226730D03*
%TD*%
D16*
%TO.C,R8*%
X188249016Y-108308630D03*
X190074016Y-108308630D03*
%TD*%
D18*
%TO.C,R1*%
X172499116Y-97845730D03*
X172499116Y-99670730D03*
%TD*%
D15*
%TO.C,R9*%
X190074016Y-112525030D03*
X188249016Y-112525030D03*
%TD*%
D16*
%TO.C,R89*%
X104390300Y-66827400D03*
X106215300Y-66827400D03*
%TD*%
D13*
%TO.C,R46*%
X155547015Y-77380497D03*
X155547015Y-75555497D03*
%TD*%
D32*
%TO.C,J3*%
X147471500Y-127925600D03*
X146471500Y-127925600D03*
X145471500Y-127925600D03*
D33*
X148771500Y-130450600D03*
X144171500Y-130450600D03*
%TD*%
D18*
%TO.C,R54*%
X174491200Y-75493300D03*
X174491200Y-77318300D03*
%TD*%
D14*
%TO.C,C23*%
X167354116Y-100282630D03*
X170304116Y-100282630D03*
%TD*%
D32*
%TO.C,J5*%
X173471500Y-127925600D03*
X172471500Y-127925600D03*
X171471500Y-127925600D03*
D33*
X174771500Y-130450600D03*
X170171500Y-130450600D03*
%TD*%
D16*
%TO.C,R11*%
X188249016Y-110391430D03*
X190074016Y-110391430D03*
%TD*%
D15*
%TO.C,R90*%
X201552700Y-66827400D03*
X199727700Y-66827400D03*
%TD*%
D18*
%TO.C,R10*%
X186316716Y-108615330D03*
X186316716Y-110440330D03*
%TD*%
D15*
%TO.C,R4*%
X186568816Y-99520230D03*
X184743816Y-99520230D03*
%TD*%
D37*
%TO.C,C19*%
X198915116Y-101514430D03*
X198915116Y-99964430D03*
%TD*%
D38*
%TO.C,J12*%
X228503200Y-87410000D03*
D39*
X228503200Y-90150000D03*
X228503200Y-92890000D03*
X228503200Y-95630000D03*
X228503200Y-98370000D03*
X228503200Y-101110000D03*
X228503200Y-103850000D03*
X228503200Y-106590000D03*
X231343200Y-88780000D03*
X231343200Y-91520000D03*
X231343200Y-94260000D03*
X231343200Y-97000000D03*
X231343200Y-99740000D03*
X231343200Y-102480000D03*
X231343200Y-105220000D03*
D40*
X229923200Y-113660000D03*
X229923200Y-80340000D03*
%TD*%
D19*
%TO.C,C1*%
X180766516Y-100942630D03*
X182316516Y-100942630D03*
%TD*%
D41*
%TO.C,R87*%
X66751200Y-101421200D03*
X66751200Y-99771200D03*
%TD*%
D23*
%TO.C,REF\u002A\u002A*%
X111302800Y-66827400D03*
%TD*%
D15*
%TO.C,R71*%
X117699200Y-89241959D03*
X115874200Y-89241959D03*
%TD*%
D24*
%TO.C,C30*%
X113453300Y-110210901D03*
X110503300Y-110210901D03*
%TD*%
D18*
%TO.C,R38*%
X163471500Y-120238100D03*
X163471500Y-122063100D03*
%TD*%
D23*
%TO.C,REF\u002A\u002A*%
X111302800Y-130327400D03*
%TD*%
D22*
%TO.C,C41*%
X116596500Y-100163959D03*
X115046500Y-100163959D03*
%TD*%
D13*
%TO.C,R42*%
X170471500Y-122063100D03*
X170471500Y-120238100D03*
%TD*%
D42*
%TO.C,C16*%
X191869116Y-108359430D03*
X193769116Y-108359430D03*
%TD*%
D28*
%TO.C,C21*%
X201829116Y-101257630D03*
X201829116Y-98307630D03*
%TD*%
D15*
%TO.C,R81*%
X110739600Y-95998359D03*
X108914600Y-95998359D03*
%TD*%
D13*
%TO.C,R45*%
X129491200Y-77318300D03*
X129491200Y-75493300D03*
%TD*%
D16*
%TO.C,R25*%
X173916616Y-93782630D03*
X175741616Y-93782630D03*
%TD*%
D29*
%TO.C,JP3*%
X56997600Y-120040400D03*
X56997600Y-122965400D03*
%TD*%
D32*
%TO.C,J9*%
X171491200Y-69630800D03*
X172491200Y-69630800D03*
X173491200Y-69630800D03*
D33*
X170191200Y-67105800D03*
X174791200Y-67105800D03*
%TD*%
D41*
%TO.C,R92*%
X223992400Y-101421200D03*
X223992400Y-99771200D03*
%TD*%
D18*
%TO.C,R14*%
X195460716Y-90581330D03*
X195460716Y-92406330D03*
%TD*%
D26*
%TO.C,C32*%
X101619100Y-96292959D03*
X101619100Y-99242959D03*
%TD*%
D32*
%TO.C,J4*%
X160471500Y-127925600D03*
X159471500Y-127925600D03*
X158471500Y-127925600D03*
D33*
X161771500Y-130450600D03*
X157171500Y-130450600D03*
%TD*%
D18*
%TO.C,R85*%
X106728300Y-99353059D03*
X106728300Y-101178059D03*
%TD*%
D37*
%TO.C,C3*%
X184183116Y-97048830D03*
X184183116Y-95498830D03*
%TD*%
D13*
%TO.C,R73*%
X119631500Y-88935259D03*
X119631500Y-87110259D03*
%TD*%
%TO.C,R47*%
X168491201Y-77318300D03*
X168491201Y-75493300D03*
%TD*%
D16*
%TO.C,R13*%
X191703416Y-110391430D03*
X193528416Y-110391430D03*
%TD*%
D13*
%TO.C,R51*%
X132491200Y-77318300D03*
X132491200Y-75493300D03*
%TD*%
D23*
%TO.C,REF\u002A\u002A*%
X65735200Y-130327400D03*
%TD*%
D18*
%TO.C,R2*%
X178544316Y-97794930D03*
X178544316Y-99619930D03*
%TD*%
D25*
%TO.C,C36*%
X127353100Y-96237159D03*
X127353100Y-94337159D03*
%TD*%
D18*
%TO.C,R34*%
X137471500Y-120238100D03*
X137471500Y-122063100D03*
%TD*%
D15*
%TO.C,R58*%
X132031600Y-93767959D03*
X130206600Y-93767959D03*
%TD*%
D16*
%TO.C,R7*%
X188290216Y-95253030D03*
X190115216Y-95253030D03*
%TD*%
D18*
%TO.C,R52*%
X161491200Y-75493300D03*
X161491200Y-77318300D03*
%TD*%
D13*
%TO.C,R44*%
X142491200Y-77318300D03*
X142491200Y-75493300D03*
%TD*%
D28*
%TO.C,C22*%
X204329116Y-101257630D03*
X204329116Y-98307630D03*
%TD*%
D22*
%TO.C,C13*%
X193543316Y-112220230D03*
X191993316Y-112220230D03*
%TD*%
D21*
%TO.C,J10*%
X78720400Y-123783400D03*
X73720400Y-123783400D03*
X73720400Y-130793400D03*
X78720400Y-130793400D03*
%TD*%
D16*
%TO.C,R16*%
X197492716Y-90731830D03*
X199317716Y-90731830D03*
%TD*%
D14*
%TO.C,C25*%
X192494916Y-87339688D03*
X195444916Y-87339688D03*
%TD*%
D16*
%TO.C,R19*%
X195208616Y-103838230D03*
X197033616Y-103838230D03*
%TD*%
D15*
%TO.C,R59*%
X132031600Y-103767959D03*
X130206600Y-103767959D03*
%TD*%
D32*
%TO.C,J7*%
X132491200Y-69630800D03*
X133491200Y-69630800D03*
X134491200Y-69630800D03*
D33*
X131191200Y-67105800D03*
X135791200Y-67105800D03*
%TD*%
D18*
%TO.C,R37*%
X147471500Y-120238100D03*
X147471500Y-122063100D03*
%TD*%
D14*
%TO.C,C46*%
X127161300Y-89648359D03*
X130111300Y-89648359D03*
%TD*%
D16*
%TO.C,R28*%
X205406216Y-92357430D03*
X207231216Y-92357430D03*
%TD*%
D24*
%TO.C,C47*%
X108459200Y-104431159D03*
X105509200Y-104431159D03*
%TD*%
D13*
%TO.C,R65*%
X127403900Y-99755659D03*
X127403900Y-97930659D03*
%TD*%
D27*
%TO.C,C20*%
X198864316Y-103825230D03*
X198864316Y-105375230D03*
%TD*%
D16*
%TO.C,R27*%
X160671817Y-97268588D03*
X162496817Y-97268588D03*
%TD*%
D43*
%TO.C,JP2*%
X82865500Y-118567200D03*
X85790500Y-118567200D03*
%TD*%
D37*
%TO.C,C52*%
X107083900Y-93725359D03*
X107083900Y-92175359D03*
%TD*%
D27*
%TO.C,C35*%
X121765100Y-100701759D03*
X121765100Y-102251759D03*
%TD*%
D15*
%TO.C,R20*%
X197084416Y-99418630D03*
X195259416Y-99418630D03*
%TD*%
D19*
%TO.C,C6*%
X180956716Y-96167430D03*
X182506716Y-96167430D03*
%TD*%
D18*
%TO.C,R40*%
X160471500Y-120238100D03*
X160471500Y-122063100D03*
%TD*%
D13*
%TO.C,R64*%
X133449100Y-99704859D03*
X133449100Y-97879859D03*
%TD*%
D24*
%TO.C,C14*%
X178786916Y-107902230D03*
X175836916Y-107902230D03*
%TD*%
D26*
%TO.C,C44*%
X112875100Y-105089759D03*
X112875100Y-108039759D03*
%TD*%
D23*
%TO.C,REF\u002A\u002A*%
X235280200Y-130327400D03*
%TD*%
D24*
%TO.C,C29*%
X138594100Y-100267959D03*
X135644100Y-100267959D03*
%TD*%
D15*
%TO.C,R26*%
X145276399Y-97282000D03*
X143451399Y-97282000D03*
%TD*%
D16*
%TO.C,R18*%
X195208616Y-101552230D03*
X197033616Y-101552230D03*
%TD*%
D13*
%TO.C,R49*%
X145491200Y-77318300D03*
X145491200Y-75493300D03*
%TD*%
D15*
%TO.C,R62*%
X100542000Y-105193159D03*
X98717000Y-105193159D03*
%TD*%
%TO.C,R84*%
X110434800Y-101840359D03*
X108609800Y-101840359D03*
%TD*%
D27*
%TO.C,C51*%
X107033100Y-96036159D03*
X107033100Y-97586159D03*
%TD*%
D13*
%TO.C,R53*%
X158491200Y-77318300D03*
X158491200Y-75493300D03*
%TD*%
D44*
%TO.C,D2*%
X131401900Y-97830459D03*
X129501900Y-97830459D03*
X130451900Y-99705459D03*
%TD*%
D13*
%TO.C,R32*%
X131471500Y-122063100D03*
X131471500Y-120238100D03*
%TD*%
D23*
%TO.C,REF\u002A\u002A*%
X65735200Y-66827400D03*
%TD*%
D16*
%TO.C,R86*%
X108914600Y-91426359D03*
X110739600Y-91426359D03*
%TD*%
D15*
%TO.C,R23*%
X197033616Y-106124230D03*
X195208616Y-106124230D03*
%TD*%
D18*
%TO.C,R43*%
X173471500Y-120238100D03*
X173471500Y-122063100D03*
%TD*%
D19*
%TO.C,C9*%
X189351716Y-97386630D03*
X190901716Y-97386630D03*
%TD*%
D32*
%TO.C,J2*%
X134471500Y-127925600D03*
X133471500Y-127925600D03*
X132471500Y-127925600D03*
D33*
X135771500Y-130450600D03*
X131171500Y-130450600D03*
%TD*%
D15*
%TO.C,R74*%
X117699200Y-87159159D03*
X115874200Y-87159159D03*
%TD*%
D16*
%TO.C,R30*%
X58822700Y-130327400D03*
X60647700Y-130327400D03*
%TD*%
D18*
%TO.C,R33*%
X134471500Y-120238100D03*
X134471500Y-122063100D03*
%TD*%
D22*
%TO.C,C33*%
X125181700Y-96607959D03*
X123631700Y-96607959D03*
%TD*%
%TO.C,C18*%
X197048516Y-97539030D03*
X195498516Y-97539030D03*
%TD*%
M02*
