%TF.GenerationSoftware,KiCad,Pcbnew,7.0.7*%
%TF.CreationDate,2024-12-16T13:22:11+01:00*%
%TF.ProjectId,dmem_2V0,646d656d-5f32-4563-902e-6b696361645f,rev?*%
%TF.SameCoordinates,Original*%
%TF.FileFunction,Drillmap*%
%TF.FilePolarity,Positive*%
%FSLAX45Y45*%
G04 Gerber Fmt 4.5, Leading zero omitted, Abs format (unit mm)*
G04 Created by KiCad (PCBNEW 7.0.7) date 2024-12-16 13:22:11*
%MOMM*%
%LPD*%
G01*
G04 APERTURE LIST*
%ADD10C,0.100000*%
%ADD11C,0.200000*%
G04 APERTURE END LIST*
D10*
X5050120Y-6278300D02*
X23950120Y-6278300D01*
X23950120Y-13478300D01*
X5050120Y-13478300D01*
X5050120Y-6278300D01*
D11*
X5305897Y-13794784D02*
X5305897Y-13594784D01*
X5305897Y-13594784D02*
X5353516Y-13594784D01*
X5353516Y-13594784D02*
X5382087Y-13604308D01*
X5382087Y-13604308D02*
X5401135Y-13623355D01*
X5401135Y-13623355D02*
X5410659Y-13642403D01*
X5410659Y-13642403D02*
X5420183Y-13680498D01*
X5420183Y-13680498D02*
X5420183Y-13709069D01*
X5420183Y-13709069D02*
X5410659Y-13747165D01*
X5410659Y-13747165D02*
X5401135Y-13766212D01*
X5401135Y-13766212D02*
X5382087Y-13785260D01*
X5382087Y-13785260D02*
X5353516Y-13794784D01*
X5353516Y-13794784D02*
X5305897Y-13794784D01*
X5505897Y-13794784D02*
X5505897Y-13661450D01*
X5505897Y-13699546D02*
X5515421Y-13680498D01*
X5515421Y-13680498D02*
X5524945Y-13670974D01*
X5524945Y-13670974D02*
X5543992Y-13661450D01*
X5543992Y-13661450D02*
X5563040Y-13661450D01*
X5629706Y-13794784D02*
X5629706Y-13661450D01*
X5629706Y-13594784D02*
X5620183Y-13604308D01*
X5620183Y-13604308D02*
X5629706Y-13613831D01*
X5629706Y-13613831D02*
X5639230Y-13604308D01*
X5639230Y-13604308D02*
X5629706Y-13594784D01*
X5629706Y-13594784D02*
X5629706Y-13613831D01*
X5753516Y-13794784D02*
X5734468Y-13785260D01*
X5734468Y-13785260D02*
X5724944Y-13766212D01*
X5724944Y-13766212D02*
X5724944Y-13594784D01*
X5858278Y-13794784D02*
X5839230Y-13785260D01*
X5839230Y-13785260D02*
X5829706Y-13766212D01*
X5829706Y-13766212D02*
X5829706Y-13594784D01*
X6086849Y-13794784D02*
X6086849Y-13594784D01*
X6086849Y-13594784D02*
X6153516Y-13737641D01*
X6153516Y-13737641D02*
X6220183Y-13594784D01*
X6220183Y-13594784D02*
X6220183Y-13794784D01*
X6401135Y-13794784D02*
X6401135Y-13690022D01*
X6401135Y-13690022D02*
X6391611Y-13670974D01*
X6391611Y-13670974D02*
X6372564Y-13661450D01*
X6372564Y-13661450D02*
X6334468Y-13661450D01*
X6334468Y-13661450D02*
X6315421Y-13670974D01*
X6401135Y-13785260D02*
X6382087Y-13794784D01*
X6382087Y-13794784D02*
X6334468Y-13794784D01*
X6334468Y-13794784D02*
X6315421Y-13785260D01*
X6315421Y-13785260D02*
X6305897Y-13766212D01*
X6305897Y-13766212D02*
X6305897Y-13747165D01*
X6305897Y-13747165D02*
X6315421Y-13728117D01*
X6315421Y-13728117D02*
X6334468Y-13718593D01*
X6334468Y-13718593D02*
X6382087Y-13718593D01*
X6382087Y-13718593D02*
X6401135Y-13709069D01*
X6496373Y-13661450D02*
X6496373Y-13861450D01*
X6496373Y-13670974D02*
X6515421Y-13661450D01*
X6515421Y-13661450D02*
X6553516Y-13661450D01*
X6553516Y-13661450D02*
X6572564Y-13670974D01*
X6572564Y-13670974D02*
X6582087Y-13680498D01*
X6582087Y-13680498D02*
X6591611Y-13699546D01*
X6591611Y-13699546D02*
X6591611Y-13756688D01*
X6591611Y-13756688D02*
X6582087Y-13775736D01*
X6582087Y-13775736D02*
X6572564Y-13785260D01*
X6572564Y-13785260D02*
X6553516Y-13794784D01*
X6553516Y-13794784D02*
X6515421Y-13794784D01*
X6515421Y-13794784D02*
X6496373Y-13785260D01*
X6677325Y-13775736D02*
X6686849Y-13785260D01*
X6686849Y-13785260D02*
X6677325Y-13794784D01*
X6677325Y-13794784D02*
X6667802Y-13785260D01*
X6667802Y-13785260D02*
X6677325Y-13775736D01*
X6677325Y-13775736D02*
X6677325Y-13794784D01*
X6677325Y-13670974D02*
X6686849Y-13680498D01*
X6686849Y-13680498D02*
X6677325Y-13690022D01*
X6677325Y-13690022D02*
X6667802Y-13680498D01*
X6667802Y-13680498D02*
X6677325Y-13670974D01*
X6677325Y-13670974D02*
X6677325Y-13690022D01*
M02*
