%TF.GenerationSoftware,KiCad,Pcbnew,7.0.7*%
%TF.CreationDate,2024-12-18T13:44:04+01:00*%
%TF.ProjectId,dmem_2V0,646d656d-5f32-4563-902e-6b696361645f,rev?*%
%TF.SameCoordinates,Original*%
%TF.FileFunction,Soldermask,Bot*%
%TF.FilePolarity,Negative*%
%FSLAX46Y46*%
G04 Gerber Fmt 4.6, Leading zero omitted, Abs format (unit mm)*
G04 Created by KiCad (PCBNEW 7.0.7) date 2024-12-18 13:44:04*
%MOMM*%
%LPD*%
G01*
G04 APERTURE LIST*
G04 Aperture macros list*
%AMRoundRect*
0 Rectangle with rounded corners*
0 $1 Rounding radius*
0 $2 $3 $4 $5 $6 $7 $8 $9 X,Y pos of 4 corners*
0 Add a 4 corners polygon primitive as box body*
4,1,4,$2,$3,$4,$5,$6,$7,$8,$9,$2,$3,0*
0 Add four circle primitives for the rounded corners*
1,1,$1+$1,$2,$3*
1,1,$1+$1,$4,$5*
1,1,$1+$1,$6,$7*
1,1,$1+$1,$8,$9*
0 Add four rect primitives between the rounded corners*
20,1,$1+$1,$2,$3,$4,$5,0*
20,1,$1+$1,$4,$5,$6,$7,0*
20,1,$1+$1,$6,$7,$8,$9,0*
20,1,$1+$1,$8,$9,$2,$3,0*%
G04 Aperture macros list end*
%ADD10R,1.000000X1.000000*%
%ADD11C,3.054000*%
%ADD12C,5.800000*%
%ADD13RoundRect,0.102000X-0.754000X0.754000X-0.754000X-0.754000X0.754000X-0.754000X0.754000X0.754000X0*%
%ADD14C,1.712000*%
%ADD15C,4.200000*%
%ADD16RoundRect,0.102000X0.704000X-0.704000X0.704000X0.704000X-0.704000X0.704000X-0.704000X-0.704000X0*%
%ADD17C,1.612000*%
%ADD18C,4.420000*%
G04 APERTURE END LIST*
D10*
%TO.C,Vce_r1*%
X83261200Y-102463600D03*
%TD*%
D11*
%TO.C,J11*%
X93720400Y-123783400D03*
X88720400Y-123783400D03*
X88720400Y-130793400D03*
X93720400Y-130793400D03*
%TD*%
D12*
%TO.C,REF\u002A\u002A*%
X194640200Y-66827400D03*
%TD*%
%TO.C,REF\u002A\u002A*%
X235280200Y-66827400D03*
%TD*%
%TO.C,REF\u002A\u002A*%
X194640200Y-130327400D03*
%TD*%
D13*
%TO.C,J1*%
X62240400Y-87410000D03*
D14*
X62240400Y-90150000D03*
X62240400Y-92890000D03*
X62240400Y-95630000D03*
X62240400Y-98370000D03*
X62240400Y-101110000D03*
X62240400Y-103850000D03*
X62240400Y-106590000D03*
X59400400Y-88780000D03*
X59400400Y-91520000D03*
X59400400Y-94260000D03*
X59400400Y-97000000D03*
X59400400Y-99740000D03*
X59400400Y-102480000D03*
X59400400Y-105220000D03*
D15*
X60820400Y-80340000D03*
X60820400Y-113660000D03*
%TD*%
D10*
%TO.C,Vce1*%
X83261200Y-99413600D03*
%TD*%
D16*
%TO.C,J12*%
X228503200Y-87410000D03*
D17*
X228503200Y-90150000D03*
X228503200Y-92890000D03*
X228503200Y-95630000D03*
X228503200Y-98370000D03*
X228503200Y-101110000D03*
X228503200Y-103850000D03*
X228503200Y-106590000D03*
X231343200Y-88780000D03*
X231343200Y-91520000D03*
X231343200Y-94260000D03*
X231343200Y-97000000D03*
X231343200Y-99740000D03*
X231343200Y-102480000D03*
X231343200Y-105220000D03*
D18*
X229923200Y-113660000D03*
X229923200Y-80340000D03*
%TD*%
D12*
%TO.C,REF\u002A\u002A*%
X111302800Y-66827400D03*
%TD*%
%TO.C,REF\u002A\u002A*%
X111302800Y-130327400D03*
%TD*%
%TO.C,REF\u002A\u002A*%
X65735200Y-130327400D03*
%TD*%
D11*
%TO.C,J10*%
X78720400Y-123783400D03*
X73720400Y-123783400D03*
X73720400Y-130793400D03*
X78720400Y-130793400D03*
%TD*%
D12*
%TO.C,REF\u002A\u002A*%
X235280200Y-130327400D03*
%TD*%
%TO.C,REF\u002A\u002A*%
X65735200Y-66827400D03*
%TD*%
M02*
