M48
; DRILL file {KiCad 7.0.7} date Wed Dec 18 13:44:07 2024
; FORMAT={-:-/ absolute / inch / decimal}
; #@! TF.CreationDate,2024-12-18T13:44:07+01:00
; #@! TF.GenerationSoftware,Kicad,Pcbnew,7.0.7
; #@! TF.FileFunction,Plated,1,4,PTH
FMAT,2
INCH
; #@! TA.AperFunction,Plated,PTH,ViaDrill
T1C0.0157
; #@! TA.AperFunction,Plated,PTH,ComponentDrill
T2C0.0197
; #@! TA.AperFunction,Plated,PTH,ComponentDrill
T3C0.0354
; #@! TA.AperFunction,Plated,PTH,ComponentDrill
T4C0.0394
; #@! TA.AperFunction,Plated,PTH,ComponentDrill
T5C0.0748
; #@! TA.AperFunction,Plated,PTH,ComponentDrill
T6C0.1260
%
G90
G05
T1
X2.0923Y-2.6273
X2.0923Y-2.7848
X2.0923Y-2.9422
X2.0923Y-3.0997
X2.0923Y-3.2572
X2.0923Y-3.4147
X2.0923Y-3.5722
X2.0923Y-3.7296
X2.0923Y-3.8871
X2.0923Y-4.0446
X2.0923Y-4.2021
X2.0923Y-4.3596
X2.0923Y-4.517
X2.0923Y-4.6745
X2.1774Y-5.0698
X2.2498Y-2.6273
X2.2498Y-2.7848
X2.2498Y-2.9422
X2.2498Y-3.0997
X2.2498Y-3.2572
X2.2498Y-3.4147
X2.2498Y-3.5722
X2.2498Y-3.7296
X2.2498Y-3.8871
X2.2498Y-4.517
X2.26Y-5.131
X2.3774Y-4.8698
X2.4073Y-2.7848
X2.4073Y-2.9422
X2.4073Y-4.6745
X2.5648Y-2.7848
X2.5648Y-2.9422
X2.5648Y-3.0997
X2.5648Y-3.2572
X2.5648Y-3.4147
X2.5648Y-4.0446
X2.5648Y-4.2021
X2.5648Y-4.517
X2.5774Y-4.8698
X2.7223Y-2.7848
X2.7223Y-2.9422
X2.7223Y-3.0997
X2.7223Y-3.2572
X2.7223Y-3.4147
X2.7223Y-4.0446
X2.7223Y-4.2021
X2.7223Y-4.517
X2.7774Y-4.6698
X2.7774Y-4.8698
X2.7774Y-5.0698
X2.8797Y-2.6273
X2.8797Y-2.7848
X2.8797Y-2.9422
X2.8797Y-3.0997
X2.8797Y-3.2572
X2.8797Y-3.4147
X2.8797Y-4.2021
X2.8797Y-4.3596
X2.8797Y-4.517
X2.9774Y-4.6698
X2.9774Y-5.0698
X3.0372Y-2.6273
X3.0372Y-2.7848
X3.0372Y-2.9422
X3.0372Y-3.0997
X3.0372Y-3.2572
X3.0372Y-3.4147
X3.0372Y-4.0446
X3.0372Y-4.3596
X3.0372Y-4.517
X3.1774Y-4.6698
X3.1774Y-5.0698
X3.1947Y-2.6273
X3.1947Y-2.7848
X3.1947Y-2.9422
X3.1947Y-3.0997
X3.1947Y-3.2572
X3.1947Y-3.4147
X3.1947Y-4.3596
X3.1947Y-4.517
X3.3522Y-2.6273
X3.3522Y-2.7848
X3.3522Y-2.9422
X3.3522Y-3.0997
X3.3522Y-3.2572
X3.3522Y-3.4147
X3.3522Y-3.8871
X3.3522Y-4.0446
X3.3522Y-4.3596
X3.3522Y-4.517
X3.3522Y-4.832
X3.3774Y-5.0698
X3.5097Y-2.6273
X3.5097Y-2.7848
X3.5097Y-2.9422
X3.5097Y-3.0997
X3.5097Y-3.2572
X3.5097Y-3.4147
X3.5097Y-4.0446
X3.5097Y-4.3596
X3.5097Y-4.517
X3.5097Y-4.6745
X3.5774Y-5.0698
X3.6671Y-2.6273
X3.6671Y-2.7848
X3.6671Y-2.9422
X3.6671Y-3.0997
X3.6671Y-3.2572
X3.6671Y-3.4147
X3.6671Y-3.8871
X3.6671Y-4.3596
X3.6671Y-4.517
X3.6671Y-4.6745
X3.7774Y-5.0698
X3.7795Y-4.0378
X3.7812Y-4.0798
X3.7812Y-4.1211
X3.7823Y-4.1634
X3.8246Y-2.6273
X3.8246Y-2.7848
X3.8246Y-2.9422
X3.8246Y-3.0997
X3.8246Y-3.2572
X3.8246Y-3.4147
X3.8246Y-3.8871
X3.8246Y-4.3596
X3.8246Y-4.517
X3.8246Y-4.6745
X3.8246Y-4.832
X3.8398Y-4.1413
X3.9774Y-5.0698
X3.9821Y-2.6273
X3.9821Y-2.7848
X3.9821Y-2.9422
X3.9821Y-3.0997
X3.9821Y-3.2572
X3.9821Y-4.517
X3.9821Y-4.6745
X3.9821Y-4.832
X4.0008Y-3.9869
X4.0302Y-3.9609
X4.0678Y-3.9603
X4.0992Y-3.9869
X4.1396Y-2.7848
X4.1396Y-2.9422
X4.1396Y-3.0997
X4.1396Y-4.2021
X4.1396Y-4.3596
X4.1396Y-4.6745
X4.1396Y-4.832
X4.262Y-4.484
X4.2971Y-2.7848
X4.2971Y-2.9422
X4.2971Y-4.832
X4.382Y-4.4843
X4.3918Y-3.9378
X4.4506Y-4.083
X4.4545Y-2.7848
X4.4626Y-3.901
X4.5006Y-4.065
X4.5746Y-3.699
X4.5766Y-3.901
X4.5774Y-5.0698
X4.612Y-2.6273
X4.612Y-3.0997
X4.612Y-3.2572
X4.612Y-4.2021
X4.612Y-4.3596
X4.612Y-4.517
X4.6306Y-3.7524
X4.6786Y-3.545
X4.6821Y-3.3475
X4.7466Y-3.577
X4.7695Y-2.9422
X4.7695Y-3.0997
X4.7695Y-3.2572
X4.7695Y-4.2021
X4.7695Y-4.3596
X4.7695Y-4.517
X4.7695Y-4.6745
X4.836Y-3.752
X4.898Y-3.2283
X4.927Y-4.2021
X4.927Y-4.3596
X4.927Y-4.517
X4.927Y-4.6745
X4.927Y-4.832
X5.0736Y-3.6917
X5.0736Y-4.0854
X5.0845Y-2.9422
X5.0845Y-3.0997
X5.0845Y-3.2572
X5.0845Y-3.4147
X5.0845Y-4.2021
X5.0845Y-4.3596
X5.0845Y-4.517
X5.0845Y-4.6745
X5.0857Y-4.1228
X5.0877Y-3.6549
X5.1768Y-3.1
X5.1776Y-4.6684
X5.2157Y-3.1062
X5.2157Y-4.678
X5.2419Y-3.5722
X5.2419Y-4.2021
X5.2419Y-4.3596
X5.2419Y-4.517
X5.2563Y-3.1073
X5.2606Y-3.6917
X5.2606Y-4.0854
X5.2888Y-4.1128
X5.2902Y-3.6657
X5.2949Y-3.1
X5.3335Y-4.678
X5.3722Y-4.6708
X5.3994Y-2.7848
X5.3994Y-3.0997
X5.3994Y-3.5722
X5.3994Y-3.7296
X5.3994Y-4.0446
X5.3994Y-4.2021
X5.3994Y-4.3596
X5.3994Y-4.832
X5.5444Y-3.8678
X5.5444Y-3.9092
X5.5458Y-3.8263
X5.5458Y-3.9503
X5.5569Y-2.7848
X5.5569Y-2.9422
X5.5569Y-3.0997
X5.5569Y-3.2572
X5.5569Y-3.7296
X5.5569Y-4.0446
X5.5569Y-4.2021
X5.5569Y-4.3596
X5.5569Y-4.517
X5.5569Y-4.6745
X5.6881Y-4.6709
X5.6886Y-3.1
X5.7144Y-4.2021
X5.7144Y-4.517
X5.7268Y-4.678
X5.7272Y-3.1076
X5.7558Y-4.004
X5.7666Y-3.83
X5.7666Y-3.9481
X5.767Y-3.7805
X5.768Y-3.1069
X5.8067Y-3.1
X5.8453Y-4.678
X5.8719Y-2.7848
X5.8847Y-4.678
X6.0293Y-2.7848
X6.0293Y-2.9422
X6.0293Y-3.0997
X6.0293Y-3.2572
X6.0293Y-3.8871
X6.0293Y-4.517
X6.0293Y-4.6745
X6.0293Y-4.832
X6.1868Y-2.7848
X6.2Y-4.6771
X6.2026Y-3.1
X6.2394Y-4.678
X6.2413Y-3.1074
X6.2786Y-3.8295
X6.2786Y-3.9476
X6.2822Y-3.108
X6.2871Y-3.986
X6.2904Y-3.7894
X6.3207Y-3.1
X6.3443Y-3.2572
X6.3443Y-3.5722
X6.3571Y-4.678
X6.3962Y-4.6735
X6.4758Y-3.838
X6.478Y-3.9418
X6.5008Y-3.8684
X6.5008Y-3.9097
X6.5018Y-2.7848
X6.5018Y-2.9422
X6.5018Y-3.0997
X6.5018Y-3.2572
X6.5018Y-3.5722
X6.5018Y-3.7296
X6.5018Y-4.0446
X6.5018Y-4.517
X6.5018Y-4.6745
X6.5018Y-4.832
X6.6593Y-2.7848
X6.6593Y-3.4147
X6.6593Y-3.5722
X6.6593Y-3.7296
X6.6593Y-4.0446
X6.6593Y-4.2021
X6.6593Y-4.6745
X6.7114Y-4.6756
X6.7123Y-3.1
X6.7512Y-3.1054
X6.7528Y-4.678
X6.7602Y-3.6614
X6.762Y-4.1182
X6.7846Y-3.6922
X6.7846Y-4.0859
X6.8167Y-3.2572
X6.8167Y-3.4147
X6.8167Y-3.5722
X6.8167Y-4.2021
X6.8167Y-4.3596
X6.8304Y-3.1
X6.869Y-4.678
X6.8694Y-3.1052
X6.9106Y-4.6756
X6.9568Y-4.1226
X6.963Y-3.6538
X6.9716Y-3.6922
X6.9716Y-4.0859
X6.9742Y-3.0997
X6.9742Y-3.2572
X6.9742Y-3.4147
X6.9742Y-3.5722
X6.9742Y-4.3596
X6.9742Y-4.517
X6.9742Y-4.6745
X6.9742Y-4.832
X7.1317Y-2.6273
X7.1317Y-3.0997
X7.1317Y-3.2572
X7.1317Y-3.4147
X7.1317Y-3.5722
X7.1317Y-4.832
X7.1472Y-4.5942
X7.2092Y-4.0257
X7.2892Y-2.6273
X7.2892Y-3.2572
X7.2892Y-3.4147
X7.2892Y-3.5722
X7.2892Y-4.517
X7.2986Y-4.2006
X7.3631Y-4.4301
X7.3666Y-4.2326
X7.4146Y-4.0252
X7.4467Y-2.6273
X7.4467Y-2.9422
X7.4467Y-3.4147
X7.4467Y-3.5722
X7.4467Y-4.517
X7.4686Y-3.8766
X7.4706Y-4.0786
X7.5446Y-3.7126
X7.5826Y-3.8766
X7.6012Y-3.7037
X7.6041Y-2.9422
X7.6041Y-3.0997
X7.6041Y-4.517
X7.6532Y-3.2962
X7.6534Y-3.8398
X7.7616Y-2.9422
X7.7616Y-3.0997
X7.7616Y-4.3596
X7.7616Y-4.517
X7.9191Y-2.9422
X7.9191Y-3.0997
X7.9191Y-3.5722
X7.9191Y-4.2021
X7.9191Y-4.3596
X7.9191Y-4.517
X7.946Y-3.7907
X7.9754Y-3.8169
X7.9774Y-5.0698
X8.0142Y-3.8159
X8.0445Y-3.7907
X8.0766Y-2.6273
X8.0766Y-2.9422
X8.0766Y-3.0997
X8.0766Y-3.5722
X8.0766Y-4.0446
X8.0766Y-4.2021
X8.0766Y-4.3596
X8.0766Y-4.517
X8.0766Y-4.832
X8.1774Y-5.0698
X8.2051Y-3.6358
X8.2341Y-2.6273
X8.2341Y-3.0997
X8.2341Y-3.8871
X8.2341Y-4.0446
X8.2341Y-4.2021
X8.2341Y-4.3596
X8.2341Y-4.832
X8.2641Y-3.6564
X8.2641Y-3.6978
X8.2642Y-3.6146
X8.2642Y-3.7398
X8.3774Y-5.0698
X8.3916Y-2.6273
X8.3916Y-2.7848
X8.3916Y-4.832
X8.549Y-2.6273
X8.549Y-2.7848
X8.549Y-2.9422
X8.549Y-3.0997
X8.549Y-3.2572
X8.549Y-3.8871
X8.549Y-4.0446
X8.549Y-4.2021
X8.549Y-4.6745
X8.549Y-4.832
X8.5774Y-5.0698
X8.7065Y-2.6273
X8.7065Y-2.7848
X8.7065Y-2.9422
X8.7065Y-3.0997
X8.7065Y-3.2572
X8.7065Y-3.4147
X8.7065Y-4.517
X8.7065Y-4.6745
X8.7065Y-4.832
X8.7774Y-5.0698
X8.864Y-2.6273
X8.864Y-2.7848
X8.864Y-2.9422
X8.864Y-3.0997
X8.864Y-3.2572
X8.864Y-3.4147
X8.864Y-3.5722
X8.864Y-4.0446
X8.864Y-4.2021
X8.864Y-4.3596
X8.864Y-4.517
X8.934Y-5.13
X8.9774Y-4.8698
X9.0215Y-2.7848
X9.0215Y-2.9422
X9.0215Y-4.6745
X9.1774Y-4.8698
X9.179Y-2.7848
X9.179Y-2.9422
X9.179Y-3.0997
X9.179Y-3.2572
X9.179Y-3.5722
X9.179Y-3.7296
X9.179Y-3.8871
X9.179Y-4.3596
X9.179Y-4.517
X9.179Y-4.6745
X9.3364Y-2.7848
X9.3364Y-2.9422
X9.3364Y-3.0997
X9.3364Y-3.2572
X9.3364Y-3.4147
X9.3364Y-3.5722
X9.3364Y-3.7296
X9.3364Y-3.8871
X9.3364Y-4.0446
X9.3364Y-4.2021
X9.3364Y-4.3596
X9.3364Y-4.517
X9.3364Y-4.6745
X9.3774Y-4.8698
T2
X3.278Y-3.9139
X3.278Y-4.034
T3
X8.9962Y-3.4413
X8.9962Y-3.5492
X8.9962Y-3.6571
X8.9962Y-3.765
X8.9962Y-3.8728
X8.9962Y-3.9807
X8.9962Y-4.0886
X8.9962Y-4.1965
X9.108Y-3.4953
X9.108Y-3.6031
X9.108Y-3.711
X9.108Y-3.8189
X9.108Y-3.9268
X9.108Y-4.0346
X9.108Y-4.1425
T4
X2.3386Y-3.4953
X2.3386Y-3.6031
X2.3386Y-3.711
X2.3386Y-3.8189
X2.3386Y-3.9268
X2.3386Y-4.0346
X2.3386Y-4.1425
X2.4504Y-3.4413
X2.4504Y-3.5492
X2.4504Y-3.6571
X2.4504Y-3.765
X2.4504Y-3.8728
X2.4504Y-3.9807
X2.4504Y-4.0886
X2.4504Y-4.1965
T5
X2.9024Y-4.8734
X2.9024Y-5.1493
X3.0992Y-4.8734
X3.0992Y-5.1493
X3.4929Y-4.8734
X3.4929Y-5.1493
X3.6898Y-4.8734
X3.6898Y-5.1493
T6
X2.3945Y-3.163
X2.3945Y-4.4748
X2.588Y-2.631
X2.588Y-5.131
X4.382Y-2.631
X4.382Y-5.131
X7.663Y-2.631
X7.663Y-5.131
X9.0521Y-3.163
X9.0521Y-4.4748
X9.263Y-2.631
X9.263Y-5.131
T0
M30
